<?xml version="1.0" encoding="UTF-8"?>
<svg version="1.1" xmlns="http://www.w3.org/2000/svg" width="50" height="50">
<path d="M0 0 C1.98 0 3.96 0 6 0 C6.33 4.95 6.66 9.9 7 15 C7.94101562 13.9171875 8.88203125 12.834375 9.8515625 11.71875 C11.10850624 10.31172343 12.36636702 8.9055157 13.625 7.5 C14.24246094 6.78457031 14.85992187 6.06914062 15.49609375 5.33203125 C20.22539106 0.10491318 20.22539106 0.10491318 24.4609375 -0.46875 C25.29882812 -0.3140625 26.13671875 -0.159375 27 0 C27 3 27 3 24.875 5.25 C23.92625 6.1575 22.9775 7.065 22 8 C19.95903525 10.29907271 17.97538726 12.64446949 16 15 C16.78246094 15.90363281 17.56492188 16.80726562 18.37109375 17.73828125 C19.39346534 18.92948484 20.41558781 20.12090227 21.4375 21.3125 C21.95376953 21.90740234 22.47003906 22.50230469 23.00195312 23.11523438 C23.49501953 23.69208984 23.98808594 24.26894531 24.49609375 24.86328125 C25.17949829 25.65665894 25.17949829 25.65665894 25.87670898 26.46606445 C27 28 27 28 28 31 C25.8125 31.8125 25.8125 31.8125 23 32 C20.5625 30 20.5625 30 18 27 C17.45601562 26.37480469 16.91203125 25.74960937 16.3515625 25.10546875 C14.88569604 23.41593722 13.43727165 21.71386001 12 20 C9.97802995 20.63430953 9.97802995 20.63430953 8 22 C7.08400573 24.40404738 7.08400573 24.40404738 6.75 27.125 C6.60046875 28.03507812 6.4509375 28.94515625 6.296875 29.8828125 C6.19890625 30.58148438 6.1009375 31.28015625 6 32 C4.02 32 2.04 32 0 32 C-0.20625 31.236875 -0.4125 30.47375 -0.625 29.6875 C-2.5676699 24.47761254 -5.27982809 19.84900211 -8 15 C-8.33 19.29 -8.66 23.58 -9 28 C-10.65 28 -12.3 28 -14 28 C-15.21611807 23.25134847 -15.14816693 18.61505567 -15.125 13.75 C-15.12886719 12.92242187 -15.13273438 12.09484375 -15.13671875 11.2421875 C-15.12669335 5.12669335 -15.12669335 5.12669335 -14 4 C-11.3125 3.375 -11.3125 3.375 -8 4 C-4.56094793 7.86792209 -2.30190221 12.39619559 0 17 C0 11.39 0 5.78 0 0 Z " fill="#DBDBDB" transform="translate(18,9)"/>
<path d="M0 0 C0.66 0 1.32 0 2 0 C2 5.94 2 11.88 2 18 C2.66 18 3.32 18 4 18 C4.26280762 17.4112207 4.52561523 16.82244141 4.79638672 16.21582031 C6.05616181 13.89660759 7.38004021 12.39050597 9.2578125 10.546875 C9.88300781 9.928125 10.50820313 9.309375 11.15234375 8.671875 C11.80332031 8.03765625 12.45429687 7.4034375 13.125 6.75 C13.78371094 6.1003125 14.44242188 5.450625 15.12109375 4.78125 C16.74296643 3.18288273 18.3693281 1.58938103 20 0 C20.66 0.33 21.32 0.66 22 1 C20.89978516 2.01320313 20.89978516 2.01320313 19.77734375 3.046875 C18.84019531 3.93890625 17.90304688 4.8309375 16.9375 5.75 C15.99777344 6.63171875 15.05804688 7.5134375 14.08984375 8.421875 C11.83184626 10.69939474 11.83184626 10.69939474 11.875 12.9375 C13.55859523 16.02409125 15.76716195 18.61051911 18.0625 21.25 C18.53494141 21.80429687 19.00738281 22.35859375 19.49414062 22.9296875 C20.65658967 24.291749 21.82747855 25.64659956 23 27 C18.05974948 27 15.01431188 22.98761946 11.625 19.6875 C11.08875 19.130625 10.5525 18.57375 10 18 C7.97802995 18.63430953 7.97802995 18.63430953 6 20 C5.08400573 22.40404738 5.08400573 22.40404738 4.75 25.125 C4.60046875 26.03507812 4.4509375 26.94515625 4.296875 27.8828125 C4.19890625 28.58148438 4.1009375 29.28015625 4 30 C2.02 30 0.04 30 -2 30 C-2.20625 29.236875 -2.4125 28.47375 -2.625 27.6875 C-4.25593081 23.3136401 -6.44671248 19.43781451 -8.7578125 15.390625 C-10 13 -10 13 -10 11 C-10.66 11 -11.32 11 -12 11 C-12 15.29 -12 19.58 -12 24 C-12.99 24 -13.98 24 -15 24 C-15 17.4 -15 10.8 -15 4 C-10 5 -10 5 -7.83203125 8.125 C-7.14171295 9.40758755 -6.46900786 10.69978171 -5.8125 12 C-3.70215855 16.73480885 -3.70215855 16.73480885 0 20 C0 13.4 0 6.8 0 0 Z " fill="#D6D6D6" transform="translate(20,11)"/>
<path d="M0 0 C1.98 0 3.96 0 6 0 C6 5.28 6 10.56 6 16 C5.67 16 5.34 16 5 16 C5 11.38 5 6.76 5 2 C4.01 2 3.02 2 2 2 C2 8.6 2 15.2 2 22 C-2.62503407 20.45832198 -3.83623903 16.15584035 -5.95117188 12.015625 C-6.87567715 10.29130687 -7.93227738 8.63949731 -9 7 C-10.32 6.67 -11.64 6.34 -13 6 C-13 12.6 -13 19.2 -13 26 C-12.01 26 -11.02 26 -10 26 C-10 21.71 -10 17.42 -10 13 C-9.67 13 -9.34 13 -9 13 C-9 17.95 -9 22.9 -9 28 C-10.65 28 -12.3 28 -14 28 C-15.21611807 23.25134847 -15.14816693 18.61505567 -15.125 13.75 C-15.12886719 12.92242187 -15.13273438 12.09484375 -15.13671875 11.2421875 C-15.12669335 5.12669335 -15.12669335 5.12669335 -14 4 C-11.3125 3.375 -11.3125 3.375 -8 4 C-4.56094793 7.86792209 -2.30190221 12.39619559 0 17 C0 11.39 0 5.78 0 0 Z " fill="#F1F1F1" transform="translate(18,9)"/>
<path d="M0 0 C0.66 0 1.32 0 2 0 C2 5.94 2 11.88 2 18 C2.66 18 3.32 18 4 18 C4.26280762 17.4112207 4.52561523 16.82244141 4.79638672 16.21582031 C6.05616181 13.89660759 7.38004021 12.39050597 9.2578125 10.546875 C10.19560547 9.61875 10.19560547 9.61875 11.15234375 8.671875 C11.80332031 8.03765625 12.45429687 7.4034375 13.125 6.75 C13.78371094 6.1003125 14.44242188 5.450625 15.12109375 4.78125 C16.74296643 3.18288273 18.3693281 1.58938103 20 0 C20.66 0.33 21.32 0.66 22 1 C21.26652344 1.67546875 20.53304687 2.3509375 19.77734375 3.046875 C18.84019531 3.93890625 17.90304688 4.8309375 16.9375 5.75 C15.99777344 6.63171875 15.05804688 7.5134375 14.08984375 8.421875 C11.83184626 10.69939474 11.83184626 10.69939474 11.875 12.9375 C13.55859523 16.02409125 15.76716195 18.61051911 18.0625 21.25 C18.53494141 21.80429687 19.00738281 22.35859375 19.49414062 22.9296875 C20.65658967 24.291749 21.82747855 25.64659956 23 27 C20 27 20 27 17.51953125 24.59375 C16.60874608 23.56994769 15.70668808 22.53832966 14.8125 21.5 C14.11737305 20.71302734 14.11737305 20.71302734 13.40820312 19.91015625 C12.264645 18.61333776 11.13132826 17.30750133 10 16 C9.38640625 16.30679687 8.7728125 16.61359375 8.140625 16.9296875 C6.09375 17.953125 4.046875 18.9765625 2 20 C2 22.64 2 25.28 2 28 C1.34 28 0.68 28 0 28 C0 18.76 0 9.52 0 0 Z " fill="#2F2F2F" transform="translate(20,11)"/>
<path d="M0 0 C5 1 5 1 6.40966797 2.55053711 C6.76689941 3.2028833 7.12413086 3.85522949 7.4921875 4.52734375 C7.88664063 5.23697266 8.28109375 5.94660156 8.6875 6.67773438 C9.079375 7.42345703 9.47125 8.16917969 9.875 8.9375 C10.29007813 9.67935547 10.70515625 10.42121094 11.1328125 11.18554688 C13.3324463 15.22920701 13.3324463 15.22920701 14 17 C13.67 17.66 13.34 18.32 13 19 C12.18595703 17.64455078 12.18595703 17.64455078 11.35546875 16.26171875 C10.63303739 15.07017612 9.91036864 13.8787774 9.1875 12.6875 C8.83107422 12.09259766 8.47464844 11.49769531 8.10742188 10.88476562 C6.2607349 7.85213289 4.53280722 5.53280722 2 3 C2 8.61 2 14.22 2 20 C1.34 20 0.68 20 0 20 C0 13.4 0 6.8 0 0 Z " fill="#2B2B2B" transform="translate(5,15)"/>
<path d="M0 0 C2.0625 0.4375 2.0625 0.4375 4 1 C3.01 1 2.02 1 1 1 C1 7.93 1 14.86 1 22 C1.99 22 2.98 22 4 22 C4 17.71 4 13.42 4 9 C4.33 9 4.66 9 5 9 C5 13.95 5 18.9 5 24 C3.35 24 1.7 24 0 24 C-1.21611807 19.25134847 -1.14816693 14.61505567 -1.125 9.75 C-1.12886719 8.92242187 -1.13273438 8.09484375 -1.13671875 7.2421875 C-1.12669335 1.12669335 -1.12669335 1.12669335 0 0 Z " fill="#F8F8F8" transform="translate(4,13)"/>
<path d="M0 0 C3.20373071 3.10361412 6.25294919 6.32069758 9.25 9.625 C10.27867188 10.75808594 10.27867188 10.75808594 11.328125 11.9140625 C13 14 13 14 14 17 C11.8125 17.8125 11.8125 17.8125 9 18 C5.57660322 15.21351425 3.98849282 12.97698564 2 9 C4.64 10.98 7.28 12.96 10 15 C9.278125 14.16855469 8.55625 13.33710937 7.8125 12.48046875 C6.87461408 11.38314223 5.93713513 10.28546778 5 9.1875 C4.52304687 8.64029297 4.04609375 8.09308594 3.5546875 7.52929688 C0 3.33984375 0 3.33984375 0 0 Z " fill="#E9E9E9" transform="translate(32,23)"/>
<path d="M0 0 C0.66 0 1.32 0 2 0 C2.19945986 3.1660296 2.38234428 6.33281796 2.5625 9.5 C2.61857422 10.386875 2.67464844 11.27375 2.73242188 12.1875 C3.03215454 17.62265235 2.8483317 22.62094863 2 28 C1.34 28 0.68 28 0 28 C0 18.76 0 9.52 0 0 Z " fill="#1F1F1F" transform="translate(20,11)"/>
<path d="M0 0 C4.20059624 1.40019875 5.19051525 4.36825877 7.1875 8.0625 C7.55552734 8.72572266 7.92355469 9.38894531 8.30273438 10.07226562 C9.21012062 11.71027457 10.10615573 13.35456221 11 15 C11 14.34 11 13.68 11 13 C11.66 13 12.32 13 13 13 C13 14.32 13 15.64 13 17 C11.68 17 10.36 17 9 17 C7.99491199 15.21118264 6.99607264 13.41885304 6 11.625 C5.1646875 10.12839844 5.1646875 10.12839844 4.3125 8.6015625 C3 6 3 6 3 4 C2.34 4 1.68 4 1 4 C1 8.29 1 12.58 1 17 C0.67 17 0.34 17 0 17 C0 11.39 0 5.78 0 0 Z " fill="#CECECE" transform="translate(7,18)"/>
<path d="M0 0 C2.92946875 2.11324273 4.22438512 4.94308497 5.796875 8.1015625 C6.27060547 9.01808594 6.27060547 9.01808594 6.75390625 9.953125 C7.52863018 11.45561989 8.28917171 12.96541268 9.046875 14.4765625 C8.386875 15.1365625 7.726875 15.7965625 7.046875 16.4765625 C6.51578125 15.48914063 5.9846875 14.50171875 5.4375 13.484375 C4.72453743 12.18978507 4.01096364 10.89553163 3.296875 9.6015625 C2.94882813 8.95058594 2.60078125 8.29960937 2.2421875 7.62890625 C0.30819056 4.15487471 -1.05320035 1.7238357 -4.953125 0.4765625 C-1.953125 -0.5234375 -1.953125 -0.5234375 0 0 Z " fill="#E4E4E4" transform="translate(9.953125,13.5234375)"/>
<path d="M0 0 C0.33 0.99 0.66 1.98 1 3 C-0.11878383 4.17262904 -1.24523051 5.33795138 -2.375 6.5 C-3.00148438 7.1496875 -3.62796875 7.799375 -4.2734375 8.46875 C-6 10 -6 10 -8 10 C-8.33 10.66 -8.66 11.32 -9 12 C-8.45015228 8.12488273 -6.72444669 6.40423494 -3.9375 3.75 C-3.20402344 3.04359375 -2.47054687 2.3371875 -1.71484375 1.609375 C-1.14894531 1.07828125 -0.58304688 0.5471875 0 0 Z " fill="#E1E1E1" transform="translate(40,13)"/>
<path d="M0 0 C0.33 0 0.66 0 1 0 C1 2.97 1 5.94 1 9 C-0.98 9 -2.96 9 -5 9 C-5.33 7.02 -5.66 5.04 -6 3 C-5.01 3 -4.02 3 -3 3 C-3 4.32 -3 5.64 -3 7 C-2.01 7 -1.02 7 0 7 C0 4.69 0 2.38 0 0 Z " fill="#F3F3F3" transform="translate(23,32)"/>
<path d="M0 0 C0.47050781 0.433125 0.94101562 0.86625 1.42578125 1.3125 C2.35970703 2.1478125 2.35970703 2.1478125 3.3125 3 C3.92738281 3.556875 4.54226562 4.11375 5.17578125 4.6875 C7.03131335 6.29201498 7.03131335 6.29201498 10 6 C10 6.66 10 7.32 10 8 C7.8125 8.375 7.8125 8.375 5 8 C2.91167347 6.17130326 1.61663209 4.30947441 0 2 C0 1.34 0 0.68 0 0 Z " fill="#E1E1E1" transform="translate(34,32)"/>
</svg>
